<svg xmlns="http://www.w3.org/2000/svg" viewBox="0 0 1923.25 968.45"><defs><style>.cls-1{fill:#ffa600;stroke:#000;stroke-width:4px;}.cls-1,.cls-3,.cls-4{stroke-miterlimit:10;}.cls-2{font-size:766.99px;font-family:MonotypeCorsiva, Monotype Corsiva;}.cls-3{stroke:#42210b;}.cls-4{fill:none;stroke:#b3b3b3;stroke-linecap:round;stroke-width:2px;}</style></defs><g id="Camada_2" data-name="Camada 2"><g id="buffet"><path id="fundo" class="cls-1" d="M95.39,174.55H1525a396.26,396.26,0,0,1,396.26,396.26v310a78.52,78.52,0,0,1-78.52,78.52H420a418,418,0,0,1-418-418V267.94a93.39,93.39,0,0,1,93.39-93.39Z"/><text class="cls-2" transform="translate(0.86 733.26)">Buffet</text><circle class="cls-3" cx="152.22" cy="265.59" r="21.34"/><circle class="cls-3" cx="1607.48" cy="261.32" r="21.34"/><path class="cls-4" d="M1603.21,1a805.74,805.74,0,0,0,0,264.59"/><path class="cls-4" d="M152.22,1a805.74,805.74,0,0,0,0,264.59"/></g></g></svg>