<svg xmlns="http://www.w3.org/2000/svg" viewBox="0 0 1924.41 545.33"><defs><style>.cls-1{fill:none;stroke:#b3b3b3;stroke-linecap:round;stroke-width:2px;}.cls-1,.cls-2,.cls-3,.cls-4{stroke-miterlimit:10;}.cls-2{fill:#ffa600;stroke-width:4px;}.cls-2,.cls-3{stroke:#000;}.cls-3{font-size:458.54px;stroke-width:0.25px;font-family:MonotypeCorsiva, Monotype Corsiva;}.cls-4{stroke:#42210b;}</style></defs><g id="Camada_2" data-name="Camada 2"><g id="KiDelicia"><g id="rowDown"><path class="cls-1" d="M266.29,490.68q12.68,24.93,0,52"/><path class="cls-1" d="M551.31,490.68q12.69,24.93,0,52"/><path class="cls-1" d="M863.16,492.35q12.69,24.95,0,52"/><path class="cls-1" d="M1740,490.68q12.67,24.93,0,52"/></g><path id="fundo" class="cls-2" d="M43.51,2H1689.12a233.29,233.29,0,0,1,233.29,233.29V464.12a41.51,41.51,0,0,1-41.51,41.51H210.77A208.77,208.77,0,0,1,2,296.86V43.51A41.51,41.51,0,0,1,43.51,2Z"/><text class="cls-3" transform="translate(2.41 365.4) scale(1.19 1)">KiDelicia</text><circle class="cls-4" cx="266.76" cy="489" r="4.19"/><circle class="cls-4" cx="552.62" cy="488.16" r="4.19"/><circle class="cls-4" cx="863.63" cy="489" r="4.19"/><circle class="cls-4" cx="1741.34" cy="488.16" r="4.19"/></g></g></svg>