<svg xmlns="http://www.w3.org/2000/svg" viewBox="0 0 1923.8 418.11"><defs><style>.cls-1{fill:#ffa600;stroke:#000;stroke-width:4px;}.cls-1,.cls-3,.cls-4{stroke-miterlimit:10;}.cls-2{font-size:326.22px;font-family:MonotypeCorsiva, Monotype Corsiva;}.cls-3{stroke:#42210b;}.cls-4{fill:none;stroke:#b3b3b3;stroke-linecap:round;stroke-width:2px;}</style></defs><g id="Camada_2" data-name="Camada 2"><g id="tia_maria" data-name="tia maria"><path id="fundo" class="cls-1" d="M31.26,72H1741.81a180,180,0,0,1,180,180v42.62a61.13,61.13,0,0,1-61.13,61.13h-1694A164.66,164.66,0,0,1,2,191.1V101.28A29.26,29.26,0,0,1,31.26,72Z"/><text class="cls-2" transform="translate(13.15 318.08) scale(1.58 1)">Tia Maria</text><circle class="cls-3" cx="63.57" cy="102.56" r="8.06"/><circle class="cls-3" cx="1751.34" cy="100.94" r="8.06"/><path class="cls-4" d="M63.57,1a285,285,0,0,0,0,96.72"/><path class="cls-4" d="M1749.72,1a285.54,285.54,0,0,0,0,96.72"/></g></g></svg>